<svg width="381" height="687" viewBox="0 0 381 687" xmlns="http://www.w3.org/2000/svg" xmlns:xlink="http://www.w3.org/1999/xlink"><title>Milou</title><defs><path id="a" d="M41 12.06V0H0v24.12h41z"/><path id="c" d="M0 48.59V.94h81v47.65z"/><path d="M44.42 22.772c0-12.365-9.882-22.39-22.073-22.39C10.157.383.273 10.408.273 22.773s44.148 12.365 44.148 0z" id="e"/></defs><g fill="none" fill-rule="evenodd"><path d="M366.102 179.964l.008.005-22.18 38.413-.006-.004c-1.437 1.904-8.934-.234-16.975-4.877-8.042-4.642-13.642-10.066-12.71-12.263l-.008-.004 22.178-38.414.008.004c.02-.044.04-.086.064-.127 1.217-2.11 8.852.02 17.053 4.755 8.2 4.735 13.863 10.283 12.646 12.39-.023.042-.05.08-.078.12z" fill="#F8B195"/><path d="M263.286 300.095l-.005-.003 47.97-83.082.004.002c2.723-4.342 8.975-5.47 14.134-2.49 5.158 2.977 7.308 8.955 4.91 13.485l.004.003-47.968 83.082-.005-.002-.15.27c-2.632 4.558-9.03 5.79-14.292 2.754-5.262-3.038-7.393-9.196-4.76-13.755.05-.09.104-.178.158-.265z" fill="#1F8F96"/><path d="M237.602 218.21l.007-.004 46.51 83.907-.008.004c2.245 4.612-1.937 11.62-9.514 15.82-7.578 4.202-15.738 4.034-18.46-.314l-.006.004-46.51-83.907.006-.004c-.054-.087-.106-.175-.156-.265-2.552-4.603 1.644-11.81 9.373-16.093 7.728-4.284 16.063-4.024 18.615.58.05.09.097.18.142.273z" fill="#1F8F96"/><path d="M342.683 193.034h.002l-23.11 41.694h-.003c-1.308 2.184-4.225 2.898-6.593 1.585-2.37-1.313-3.31-4.165-2.15-6.432h-.002l23.11-41.693h.003l.073-.134c1.268-2.288 4.254-3.057 6.67-1.718 2.415 1.338 3.344 4.278 2.076 6.566-.026.046-.05.09-.077.134z" fill="#F8B195"/><path d="M322.27 234.67c-1.743 3.144-5.7 4.282-8.834 2.545l-1.763-.977c-3.136-1.738-4.267-5.694-2.523-8.84l3.325-6c1.743-3.143 3.936-2.893 4.193-1.975 0 0 2.18 2.483 2.75 2.798.568.316 4.088 1.805 4.088 1.805l1.317.273c2.17-.728 2.515 1.227.772 4.373l-3.326 6z" fill="#1F8F96"/><path d="M320.568 181.618l7.878 22.874h-.002c.364 1.24-.758 2.722-2.55 3.34-1.792.616-3.588.14-4.065-1.062h-.003l-7.876-22.874h.003c-.01-.024-.02-.05-.027-.073-.433-1.255.7-2.783 2.526-3.412 1.828-.63 3.66-.12 4.092 1.134.01.024.017.05.024.074z" fill="#F8B195"/><g fill="#4A4A4A"><path d="M94 370.962h130v51.49H94z"/><path d="M224 425.152c0-28.18-27.707-51.154-62.4-52.252-.862-.027-1.73-.04-2.6-.04-35.9 0-65 23.41-65 52.292 0 28.88 130 28.88 130 0z"/></g><path fill="#4A4A4A" d="M175 395.445h25v245h-25z"/><path d="M216.13 646.01c0-11.357-9.207-20.565-20.565-20.565S175 634.653 175 646.01c0 11.358 41.13 11.358 41.13 0z" stroke="#979797" fill="#4990E2"/><path fill="#4A4A4A" d="M115 395.445h25v245h-25z"/><path d="M141.13 645.01c0-11.357-9.207-20.565-20.565-20.565S100 633.653 100 645.01c0 11.358 41.13 11.358 41.13 0z" stroke="#979797" fill="#4990E2"/><g transform="translate(94 211.445)"><rect fill="#1F8F96" y="35.817" width="130" height="144.365" rx="8"/><ellipse fill="#1F8F96" cx="65" cy="40.817" rx="65" ry="40.817"/><ellipse fill="#1F8F96" cx="65" cy="170.183" rx="65" ry="40.817"/><g transform="translate(48 41)"><ellipse fill="#000" cx="4" cy="24" rx="4" ry="4"/><ellipse fill="#000" cx="4" cy="50.667" rx="4" ry="4"/><ellipse fill="#000" cx="4" cy="77.333" rx="4" ry="4"/><ellipse fill="#000" cx="4" cy="104" rx="4" ry="4"/><ellipse fill="#000" cx="4" cy="130.667" rx="4" ry="4"/><path d="M20.076.857V151.34" stroke="#08282A"/></g></g><g transform="translate(148 170.445)" fill="#DF9C82"><path d="M0 15.003C0 10.583 3.588 7 7.995 7h10.01C22.42 7 26 10.578 26 15.006V45.636c0 4.415-3.588 7.995-7.995 7.995H7.995C3.58 53.63 0 50.05 0 45.63V15.003z"/><ellipse cx="13" cy="13.184" rx="13" ry="13.184"/><ellipse cx="13" cy="47.184" rx="13" ry="13.184"/></g><path d="M81.195 381.287l-.004.004-61.665-73.49.004-.004c-3.15-4.044-2.07-10.305 2.492-14.133 4.563-3.83 10.915-3.804 14.35 0l.006-.005 61.666 73.49-.004.005c.068.076.136.153.202.232 3.384 4.033 2.354 10.468-2.3 14.373-4.653 3.905-11.17 3.8-14.553-.232-.067-.078-.132-.158-.195-.24z" fill="#1F8F96"/><path d="M13.64 284.178l-.004-.007 75.6-59.063.004.007c4.204-2.94 11.78.095 17.114 6.922 5.334 6.827 6.445 14.913 2.577 18.28l.006.007-75.6 59.064-.004-.006c-.077.068-.156.133-.237.197-4.148 3.24-11.922.223-17.362-6.74-5.44-6.963-6.487-15.236-2.34-18.477.082-.063.164-.124.248-.182z" fill="#1F8F96"/><path d="M117.288 379.647l.004.003-18.906 20.998-.004-.004c-1.148.996-5.536-1.328-9.93-5.286-4.396-3.957-7.167-8.078-6.295-9.323l-.005-.004 18.906-20.996.004.003c.018-.024.037-.048.057-.07 1.036-1.153 5.51 1.185 9.994 5.22 4.483 4.038 7.276 8.244 6.238 9.396-.02.023-.04.044-.064.064z" fill="#F8B195"/><g transform="translate(80 38.445)"><g transform="translate(0 67)"><ellipse fill="#F8B195" cx="11" cy="11" rx="11" ry="11"/><ellipse fill="#DF9C82" cx="11" cy="11" rx="6" ry="6"/></g><g transform="translate(135 67)"><circle fill="#F8B195" cx="11" cy="11" r="11"/><ellipse fill="#DF9C82" cx="11" cy="11" rx="6" ry="6"/></g><path d="M112.05 82s76.22 21.372 27.912 65.267c-48.306 43.896 5.774 76.026 5.774 76.026s-42.14-22.875-50.13-45.67C87.616 154.832 112.05 82 112.05 82z" fill="#FDE968"/><path d="M78.5 162c25.118 0 68.5-36.265 68.5-81S116.332 0 78.5 0 10 36.265 10 81s43.382 81 68.5 81z" fill="#F8B195"/><circle fill="#F4F2F2" cx="148.5" cy="86.5" r="2.5"/><ellipse fill="#F4F2F2" cx="9.5" cy="86.5" rx="2.5" ry="2.5"/><g transform="translate(47 59)" fill="#000"><ellipse cx="8.5" cy="8.5" rx="8.5" ry="8.5"/><ellipse cx="54.5" cy="8.5" rx="8.5" ry="8.5"/></g><g transform="rotate(-30 165.826 -151.5)"><mask id="b" fill="#fff"><use xlink:href="#a"/></mask><path d="M7.592 3.32S14.174 5.53 21 1.94c0 0-2.21 4.815-11.96 4.578 0 0 3.27 2.155 11.96.008 0 0-4.793 4.15-13.408 1.892 0 0 4.278 3.326 10.463 2.257 0 0-3.67 3.208-12.055-.594l1.592-6.76z" fill="#000" mask="url(#b)"/></g><g transform="rotate(30 -79.478 104.38)"><mask id="d" fill="#fff"><use xlink:href="#c"/></mask><path d="M13.408 2.32S6.826 4.53 0 .94c0 0 2.21 4.815 11.96 4.578 0 0-3.27 2.155-11.96.008 0 0 4.793 4.15 13.408 1.892 0 0-4.28 3.326-10.463 2.257 0 0 3.668 3.208 12.055-.594l-1.592-6.76z" fill="#000" mask="url(#d)"/></g><g fill="#8B572A"><path d="M34 55.043S44.388 33.1 62.658 44.073c9.032 5.423-4.778.352-14.067 1.74-9.288 1.385-14.59 9.23-14.59 9.23zM123.7 56.043S113.608 34.1 95.857 45.073c-8.776 5.423 4.642.352 13.667 1.74 9.025 1.385 14.176 9.23 14.176 9.23z"/></g><g transform="translate(56 110)"><mask id="f" fill="#fff"><use xlink:href="#e"/></mask><use fill="#000" transform="rotate(-179 22.347 16.214)" xlink:href="#e"/><ellipse fill="#D0011B" mask="url(#f)" cx="22.5" cy="29.5" rx="13.5" ry="13.5"/></g><g transform="translate(25 90)" fill="#F1A1A1"><ellipse cx="95" cy="6.5" rx="14" ry="6.5"/><ellipse cx="14" cy="6.5" rx="14" ry="6.5"/></g></g><ellipse fill="#FFF" cx="132.5" cy="103.945" rx="3.5" ry="3.5"/><circle fill="#FFF" cx="138.5" cy="107.945" r="2.5"/><ellipse fill="#FFF" cx="178.5" cy="103.945" rx="3.5" ry="3.5"/><circle fill="#FFF" cx="184.5" cy="107.945" r="2.5"/><ellipse fill="#DF9C82" cx="158" cy="125.945" rx="8" ry="5.5"/><path fill="#DF9C82" d="M150.532 224.336l11.29 15.644 10.367-15.78"/><path d="M233.26 103.286c8.167-15.36-5.702-67.875-29.1-80.315-23.397-12.44-48.985-10.072-57.152 5.288-4.374 8.227 17.634 27.567 40.925 46.97 23.29 19.406 41.533 35.192 45.326 28.058z" fill="#FDE968"/><path d="M162.89 34.76c-6.568-10.114-25.9-9.22-43.175 2-17.277 11.22-35.81 55.886-29.24 66.002 6.568 10.115 78.985-57.885 72.416-68z" fill="#FDE968"/><path d="M92.43 98.45H102.235s3.812 6.243-5.593 17.116c-5.215 6.03-1.87 11.035 0 16.03 1.87 4.995 1.198 8.708 1.198 8.708s-1.352-2.622-3.34-5.006c-1.988-2.385-5.468-5.606-7.605-8.9-3.965-6.11 6.59-14.477 5.534-18.263-2.845-10.208 0-9.685 0-9.685zM213 93.442l14.17-2.997s9.04 5.025 6.385 20.41c-2.656 15.385-7.382 17.055-7.382 17.055s.032-15.915-2.65-22.936C220.837 97.954 213 93.442 213 93.442z" fill="#FDE968"/></g></svg>