<?xml version="1.0" encoding="UTF-8"?>
<svg width="80px" height="80px" viewBox="0 0 80 80" version="1.1" xmlns="http://www.w3.org/2000/svg" xmlns:xlink="http://www.w3.org/1999/xlink">
    <!-- Generator: Sketch 43.1 (39012) - http://www.bohemiancoding.com/sketch -->
    <title>Artboard</title>
    <desc>Created with Sketch.</desc>
    <defs>
        <rect id="path-1" x="12" y="51" width="35" height="14"></rect>
    </defs>
    <g id="Page-1" stroke="none" stroke-width="1" fill="none" fill-rule="evenodd">
        <g id="Artboard">
            <g id="kaarsje" transform="translate(11.000000, 4.000000)">
                <rect id="Rectangle-16" fill-opacity="0.5" fill="#D8D8D8" x="0" y="42" width="58" height="31" rx="8"></rect>
                <g id="Rectangle-17">
                    <use fill="#D8D8D8" fill-rule="evenodd" xlink:href="#path-1"></use>
                    <rect stroke="#979797" stroke-width="1" x="12.5" y="51.5" width="34" height="13"></rect>
                </g>
                <path d="M28.6210938,51.3007812 L28.6210938,43.5" id="Path-18" stroke="#979797" stroke-width="3"></path>
                <path d="M23.11726,34.9714988 C22.355249,36.198232 21.9552176,37.7455772 21.9552176,39.4273387 C21.9552176,43.4113382 24.2001531,46.641008 28.1841527,46.641008 C32.1681522,46.641008 35.1336496,43.4113382 35.1336496,39.4273387 C35.1336496,38.5182826 34.979252,37.6485004 34.6935872,36.847399 L34.7290883,36.850525 C34.7290883,36.850525 34.7000348,36.8044581 34.6466319,36.7194629 C34.3101852,35.8282977 33.8098003,35.0257058 33.1782214,34.3533169 C32.3685032,33.032942 31.4281415,31.4705278 30.8475143,30.410252 C29.6596045,28.2410255 28.9570458,25 28.9570458,25 C28.9570458,25 25.0450992,28.84852 24.1898651,30.410252 C23.5872139,31.5107455 23.2587247,33.7467407 23.11726,34.9714988 Z" id="Combined-Shape" fill="#F8E81C"></path>
                <path d="M24.7975471,36.8437608 C24.2745544,37.6857073 24,38.7477003 24,39.9019473 C24,42.6362946 25.5407715,44.852921 28.2751188,44.852921 C31.009466,44.852921 33.0447824,42.6362946 33.0447824,39.9019473 C33.0447824,39.2780328 32.9388144,38.6810733 32.7427534,38.1312516 L32.7671189,38.1333971 C32.7671189,38.1333971 32.7471786,38.1017799 32.7105264,38.0434449 C32.4796122,37.4318095 32.136182,36.8809649 31.702709,36.4194827 C31.1469734,35.5132669 30.5015728,34.4409317 30.1030696,33.7132302 C29.2877689,32.2244202 28.8055802,30 28.8055802,30 C28.8055802,30 26.1206853,32.6413633 25.5337105,33.7132302 C25.1200916,34.4685343 24.8946389,36.0031699 24.7975471,36.8437608 Z" id="Combined-Shape" fill="#F6A623"></path>
                <circle id="candle_lighting" fill-opacity="0.1" fill="#FDD604" cx="29.5" cy="27.5" r="27.5"></circle>
            </g>
        </g>
    </g>
</svg>