<svg width="232" height="181" viewBox="0 0 232 181" xmlns="http://www.w3.org/2000/svg" xmlns:xlink="http://www.w3.org/1999/xlink"><title>Combined Shape</title><defs><path d="M739.28 122.375C746.717 106.218 763.05 95 782 95c22.363 0 41.08 15.62 45.833 36.543 2.336-.358 4.73-.543 7.167-.543 25.957 0 47 21.043 47 47 0 22.598-15.948 41.47-37.203 45.978l-7.335 51.522s-14.9-6.172-32.58-11.373c-12.88-3.79-27.235-7.064-38.382-7.064-26.45 0-74.717 18.437-74.717 18.437l-3.48-40.303C666.502 231.12 650 211.987 650 189c0-9.016 2.54-17.44 6.94-24.593-1.262-4.25-1.94-8.75-1.94-13.407 0-25.957 21.043-47 47-47 15.185 0 28.688 7.2 37.28 18.375z" id="a"/></defs><g transform="translate(-650 -95)" fill="none" fill-rule="evenodd"><use fill="#FFF" xlink:href="#a"/><path stroke="#979797" d="M837.057 274.795c-.397-.162-.857-.346-1.375-.552-1.59-.63-3.403-1.334-5.412-2.092-5.74-2.162-11.895-4.325-18.218-6.345-2.36-.754-4.707-1.475-7.03-2.158-15.267-4.49-28.49-7.084-38.522-7.084-7.64 0-17.494 1.514-29.045 4.26-5.854 1.393-12.018 3.073-18.376 4.98-6.735 2.018-13.328 4.18-19.508 6.344-2.163.757-4.12 1.46-5.836 2.09-.57.21-1.076.4-1.512.562l-3.422-39.646-.032-.378-.374-.07C666.56 230.62 650.5 211.476 650.5 189c0-8.713 2.4-17.07 6.866-24.33l.117-.19-.064-.215c-1.27-4.27-1.92-8.723-1.92-13.265 0-25.68 20.82-46.5 46.5-46.5 14.63 0 28.134 6.8 36.884 18.18l.505.656.345-.752C747.268 106.214 763.66 95.5 782 95.5c21.822 0 40.574 15.153 45.345 36.154l.103.454.46-.07c2.332-.358 4.7-.538 7.092-.538 25.68 0 46.5 20.82 46.5 46.5 0 22.068-15.49 40.97-36.807 45.488l-.342.073-.048.347-7.245 50.888z"/></g></svg>