<?xml version="1.0" encoding="UTF-8"?>
<svg width="277px" height="154px" viewBox="0 0 277 154" version="1.1" xmlns="http://www.w3.org/2000/svg" xmlns:xlink="http://www.w3.org/1999/xlink">
    <!-- Generator: Sketch 43.1 (39012) - http://www.bohemiancoding.com/sketch -->
    <title>Group 7</title>
    <desc>Created with Sketch.</desc>
    <defs></defs>
    <g id="Website" stroke="none" stroke-width="1" fill="none" fill-rule="evenodd">
        <g id="About" transform="translate(-1036.000000, -770.000000)">
            <g id="Group-7" transform="translate(1035.000000, 750.000000)">
                <g id="Group-8">
                    <g id="book-halter">
                        <g id="Group-10">
                            <path d="M236,34 C236,34 243.445964,35.5859375 246.5,35.5859375 C249.554036,35.5859375 257,34 257,34 L257,165 C257,165 250.020508,167.726562 246.5,167.726562 C242.979492,167.726562 236,165 236,165 L236,34 Z" id="Rectangle-11" fill="#229D81"></path>
                            <path d="M204,34 C204,34 214.99166,35.5859375 219.5,35.5859375 C224.00834,35.5859375 235,34 235,34 L235,165 C235,165 224.69694,167.726562 219.5,167.726562 C214.30306,167.726562 204,165 204,165 L204,34 Z" id="Rectangle-11" fill="#636363"></path>
                            <path d="M204,34 C204,34 214.99166,35.5859375 219.5,35.5859375 C224.00834,35.5859375 235,34 235,34 L235,165 C235,165 224.69694,167.726562 219.5,167.726562 C214.30306,167.726562 204,165 204,165 L204,34 Z" id="Rectangle-11" fill="#636363"></path>
                            <path d="M49,34 C49,34 59.9916605,35.5859375 64.5,35.5859375 C69.0083395,35.5859375 80,34 80,34 L80,165 C80,165 69.6969401,167.726562 64.5,167.726562 C59.3030599,167.726562 49,165 49,165 L49,34 Z" id="Rectangle-11" fill="#AD3F3F"></path>
                            <path d="M17,20 C17,20 27.9916605,21.8263714 32.5,21.8263714 C37.0083395,21.8263714 48,20 48,20 L48,170.860081 C48,170.860081 37.6969401,174 32.5,174 C27.3030599,174 17,170.860081 17,170.860081 L17,20 Z" id="Rectangle-11" fill="#2D4679"></path>
                            <path d="M1,21 C1,21 5.96397569,22.7552141 8,22.7552141 C10.0360243,22.7552141 15,21 15,21 L15,165.982415 C15,165.982415 10.3470052,169 8,169 C5.65299479,169 1,165.982415 1,165.982415 L1,21 Z" id="Rectangle-11" fill="#6BB45F"></path>
                            <path d="M259,40 C259,40 265.736824,41.4348958 268.5,41.4348958 C271.263176,41.4348958 278,40 278,40 L278,158.52381 C278,158.52381 271.685221,160.990699 268.5,160.990699 C265.314779,160.990699 259,158.52381 259,158.52381 L259,40 Z" id="Rectangle-11" fill="#D7CC47"></path>
                            <text id="UX" transform="translate(270.000000, 51.864258) rotate(-90.000000) translate(-270.000000, -51.864258) " font-family="Roboto-Bold, Roboto" font-size="12" font-weight="bold" fill="#185054">
                                <tspan x="244.135742" y="55.8642578">UX</tspan>
                            </text>
                            <text id="Marketing" transform="translate(233.000000, 119.228516) rotate(-90.000000) translate(-233.000000, -119.228516) " font-family="Roboto-Regular, Roboto" font-size="12" font-weight="normal" fill="#EAEAEA">
                                <tspan x="200.5" y="116.228516">Marketing</tspan>
                            </text>
                            <text id="Management" transform="translate(7.000000, 113.978516) rotate(-90.000000) translate(-7.000000, -113.978516) " font-family="Roboto-Bold, Roboto" font-size="11" font-weight="bold" fill="#000000">
                                <tspan x="-36.25" y="117.478516">Management</tspan>
                            </text>
                            <text id="Imteraction-design" transform="translate(71.000000, 126.228516) rotate(-90.000000) translate(-71.000000, -126.228516) " font-family="Roboto-Light, Roboto" font-size="12" font-weight="300" fill="#E7E7E7">
                                <tspan x="38.5" y="116.228516">Imteraction </tspan>
                                <tspan x="38.5" y="130.228516">design</tspan>
                            </text>
                            <text id="Interculteral-commun" transform="translate(33.000000, 59.478516) rotate(-90.000000) translate(-33.000000, -59.478516) " font-family="Roboto-Regular, Roboto" font-size="12" font-weight="normal" fill="#D3D3D3">
                                <tspan x="-25.75" y="56.4785156">Interculteral </tspan>
                                <tspan x="-25.75" y="70.4785156">communication</tspan>
                            </text>
                            <text id="Communication" transform="translate(246.000000, 93.864258) rotate(-90.000000) translate(-246.000000, -93.864258) " font-family="Roboto-Light, Roboto" font-size="12" font-weight="300" fill="#ECECEC">
                                <tspan x="198.135742" y="97.8642578">Communication</tspan>
                            </text>
                            <rect id="Rectangle-12" fill="#9A9A9A" x="80" y="90" width="124" height="10"></rect>
                        </g>
                    </g>
                </g>
            </g>
        </g>
    </g>
</svg>