<svg width="900" height="727" viewBox="0 0 900 727" xmlns="http://www.w3.org/2000/svg" xmlns:xlink="http://www.w3.org/1999/xlink"><title>kitchen</title><defs><path id="a" d="M113 380h211v88H113z"/><path id="b" d="M53 68h6v29h-6z"/><path id="c" d="M0 0h127v10.744H0z"/><path id="d" d="M24.32 61.78h78.36V77H24.32z"/><path id="e" d="M37 61h39v8H37z"/></defs><g fill="none" fill-rule="evenodd"><path fill="#A1958A" d="M34 298h833v429H34z"/><path fill="#4A4A4A" d="M0 254h900v44H0z"/><g fill="#F7F4D4"><path d="M748 468h31v259h-31zM638 468h31v259h-31z"/></g><g fill="#F7F4D4"><path d="M258 468h31v259h-31zM148 468h31v259h-31z"/></g><use fill="#737373" xlink:href="#a"/><path stroke="#979797" d="M113.5 380.5h210v87h-210z"/><path fill="#737373" d="M603 380h211v88H603zM295 242h159v12H295z"/><g fill="#D8D8D8"><path d="M259.326 115.528c-.16-1.586-.243-3.196-.243-4.825 0-2.024.127-4.018.374-5.974v-.083l.01.003C262.395 81.716 281.742 64 305.172 64c25.454 0 46.09 20.91 46.09 46.703 0 10.993-3.75 21.1-10.02 29.077v-30.56c0-19.373-15.7-35.067-35.068-35.067-19.372 0-35.068 15.7-35.068 35.068v22.913l.863 68.43h-13.673l1.03-85.035z"/><path d="M338.375 113.48H354v31.666h-15.625zM236.813 238.167h52.734V254h-52.734zM275.875 214.62l23.438-6.14v23.75l-23.438-4.94M252.438 214.62L229 208.48v23.75l23.438-4.94"/><path d="M250.484 192.646h27.344v47.5h-27.344z"/></g><g transform="translate(678 85)"><path fill="#B62D2D" d="M15 157h187v12H15z"/><use fill="#D8D8D8" xlink:href="#b"/><path stroke="#979797" d="M53.5 68.5h5v28h-5z"/><path d="M148.1 26h33.098v34.84s-5.537 36.247 0 62.108C186.735 148.81 202 158 202 158h-87s33.1-59.407 33.1-90.183V26z" fill="#B62E2E"/><path d="M87 51h90.507C191.585 51 203 39.583 203 25.5 203 11.414 191.586 0 177.507 0H53.493C39.415 0 28 11.417 28 25.5c0 .167.002.334.005.5L28 61h59V51z" fill="#B62E2E"/><path d="M30.042 142.024C16.194 131.906 7.206 115.6 7.206 97.206c0-2.494.165-4.95.485-7.357h110.864c.32 2.406.486 4.862.486 7.356 0 18.393-8.988 34.7-22.836 44.818H30.042z" stroke="#979797" fill="#D8D8D8"/><g transform="translate(0 80)"><use fill="#D8D8D8" xlink:href="#c"/><path stroke="#979797" d="M.5.5h126v9.744H.5z"/></g><g transform="translate(0 80)"><use fill="#D8D8D8" xlink:href="#d"/><path stroke="#979797" d="M24.82 62.28h77.36V76.5H24.82z"/></g><circle stroke="#979797" fill="#D8D8D8" cx="171" cy="25" r="12"/><g><use fill="#D8D8D8" xlink:href="#e"/><path stroke="#979797" d="M37.5 61.5h38v7h-38z"/></g><circle stroke="#979797" fill="#979797" cx="171" cy="25" r="9"/></g><g transform="translate(122 202)"><path d="M.968 3.564c.82-1.91 3.173-3.46 5.264-3.46h21.112c2.086 0 4.463 1.544 4.86 2.436 0 0-.043-.093 0 0l.827 1.71c.907 1.873-.045 3.39-2.12 3.39H2.978C.9 7.64-.12 6.097.703 4.182l.265-.618z" fill="#BDDEB8"/><path d="M32.833 16.54C32.013 18.45 29.66 20 27.57 20H6.458c-2.087 0-4.463-1.543-4.86-2.434 0 0 .043.093 0 0l-.828-1.71c-.906-1.873.046-3.39 2.12-3.39h27.934c2.077 0 3.097 1.542 2.274 3.458l-.265.617z" fill="#BDDDB7"/><rect fill="#ADDEA4" y="6.629" width="34" height="2.135" rx="1.067"/><rect fill="#ADDDA4" y="10.674" width="34" height="2.135" rx="1.067"/><path fill="#D8E8D5" d="M1.9 8.652h30.646v2.135H1.9z"/></g><g transform="translate(16 222)"><path d="M.968 3.564c.82-1.91 3.173-3.46 5.264-3.46h21.112c2.086 0 4.463 1.544 4.86 2.436 0 0-.043-.093 0 0l.827 1.71c.907 1.873-.045 3.39-2.12 3.39H2.978C.9 7.64-.12 6.097.703 4.182l.265-.618zM32.833 16.54C32.013 18.45 29.66 20 27.57 20H6.458c-2.087 0-4.463-1.543-4.86-2.434 0 0 .043.093 0 0l-.828-1.71c-.906-1.873.046-3.39 2.12-3.39h27.934c2.077 0 3.097 1.542 2.274 3.458l-.265.617z" fill="#C2B5EC"/><rect fill="#B7ABDE" y="6.629" width="34" height="2.135" rx="1.067"/><rect fill="#B7ABDD" y="10.674" width="34" height="2.135" rx="1.067"/><path fill="#D5CCF1" d="M1.9 8.652h30.646v2.135H1.9z"/><path d="M87.968 3.564c.82-1.91 3.173-3.46 5.264-3.46h21.112c2.086 0 4.463 1.544 4.86 2.436 0 0-.043-.093 0 0l.827 1.71c.907 1.873-.045 3.39-2.12 3.39H89.978c-2.077 0-3.098-1.543-2.275-3.458l.265-.618zM119.833 16.54c-.82 1.91-3.172 3.46-5.263 3.46H93.458c-2.087 0-4.463-1.543-4.86-2.434 0 0 .043.093 0 0l-.828-1.71c-.906-1.873.046-3.39 2.12-3.39h27.934c2.077 0 3.097 1.542 2.274 3.458l-.265.617z" fill="#C2B5EC"/><rect fill="#B7ABDE" x="87" y="6.629" width="34" height="2.135" rx="1.067"/><rect fill="#B7ABDD" x="87" y="10.674" width="34" height="2.135" rx="1.067"/><path fill="#D5CCF1" d="M88.9 8.652h30.646v2.135H88.9z"/></g><g transform="translate(55 222)"><path d="M.968 3.564c.82-1.91 3.173-3.46 5.264-3.46h21.112c2.086 0 4.463 1.544 4.86 2.436 0 0-.043-.093 0 0l.827 1.71c.907 1.873-.045 3.39-2.12 3.39H2.978C.9 7.64-.12 6.097.703 4.182l.265-.618z" fill="#BDDEB8"/><path d="M32.833 16.54C32.013 18.45 29.66 20 27.57 20H6.458c-2.087 0-4.463-1.543-4.86-2.434 0 0 .043.093 0 0l-.828-1.71c-.906-1.873.046-3.39 2.12-3.39h27.934c2.077 0 3.097 1.542 2.274 3.458l-.265.617z" fill="#BDDDB7"/><rect fill="#ADDEA4" y="6.629" width="34" height="2.135" rx="1.067"/><rect fill="#ADDDA4" y="10.674" width="34" height="2.135" rx="1.067"/><path fill="#D8E8D5" d="M1.9 8.652h30.646v2.135H1.9z"/></g><g transform="translate(36 202)"><path d="M.968 3.564c.82-1.91 3.173-3.46 5.264-3.46h21.112c2.086 0 4.463 1.544 4.86 2.436 0 0-.043-.093 0 0l.827 1.71c.907 1.873-.045 3.39-2.12 3.39H2.978C.9 7.64-.12 6.097.703 4.182l.265-.618z" fill="#F0B5BD"/><path d="M32.833 16.54C32.013 18.45 29.66 20 27.57 20H6.458c-2.087 0-4.463-1.543-4.86-2.434 0 0 .043.093 0 0l-.828-1.71c-.906-1.873.046-3.39 2.12-3.39h27.934c2.077 0 3.097 1.542 2.274 3.458l-.265.617z" fill="#F0B5BC"/><rect fill="#F297A2" y="6.629" width="34" height="2.135" rx="1.067"/><rect fill="#F197A1" y="10.674" width="34" height="2.135" rx="1.067"/><path fill="#F9D4D9" d="M1.9 8.652h30.646v2.135H1.9z"/></g><g transform="translate(139 222)"><path d="M.968 3.564c.82-1.91 3.173-3.46 5.264-3.46h21.112c2.086 0 4.463 1.544 4.86 2.436 0 0-.043-.093 0 0l.827 1.71c.907 1.873-.045 3.39-2.12 3.39H2.978C.9 7.64-.12 6.097.703 4.182l.265-.618z" fill="#F0B5BD"/><path d="M32.833 16.54C32.013 18.45 29.66 20 27.57 20H6.458c-2.087 0-4.463-1.543-4.86-2.434 0 0 .043.093 0 0l-.828-1.71c-.906-1.873.046-3.39 2.12-3.39h27.934c2.077 0 3.097 1.542 2.274 3.458l-.265.617z" fill="#F0B5BC"/><rect fill="#F297A2" y="6.629" width="34" height="2.135" rx="1.067"/><rect fill="#F197A1" y="10.674" width="34" height="2.135" rx="1.067"/><path fill="#F9D4D9" d="M1.9 8.652h30.646v2.135H1.9z"/></g><path fill="#D8D8D8" d="M90 152h6v92h-6z"/><path fill="#D8D8D8" d="M90 77h6v92h-6z"/><path fill="#D8D8D8" d="M90 35h6v44h-6z"/><path fill="#CDDCDD" d="M13 242h165l-4.697 12H16.5M28 157h131l-3.73 12H30.78M41 69h108l-3.074 12H43.29"/><path d="M93 40c-11.046 0-20-8.954-20-20S81.954 0 93 0s20 8.954 20 20-8.954 20-20 20zm.5-5c8.008 0 14.5-6.492 14.5-14.5S101.508 6 93.5 6 79 12.492 79 20.5 85.492 35 93.5 35z" fill="#D8D8D8"/><path d="M30.673 154.6c-.005-.145-.008-.29-.008-.436 0-5.06 3.276-9.164 7.316-9.164 4.042 0 7.318 4.103 7.318 9.164 0 .146-.003.29-.008.436H30.673z" fill="#8B572A"/><path fill="#6C431F" d="M30 153h15.963v4H30z"/><path fill="#8B572A" d="M46 148h15v9H46z"/><path fill="#6D4320" d="M136 148h15v9h-15z"/><path fill="#FFF9A8" d="M140 144h7v4h-7z"/><rect fill="#FFF9A8" x="61" y="144" width="22" height="13" rx="6.5"/><rect fill="#6D4320" x="66" y="141" width="11" height="4" rx="2"/><path fill="#6D4320" d="M98 153h21v4H98z"/><path fill="#8B572A" d="M98 149h21v4H98z"/><path fill="#FFF9A8" d="M98 145h21v4H98z"/><ellipse fill="#FFF9A8" transform="rotate(90 127.5 152.5)" cx="127.5" cy="152.5" rx="6.5" ry="9.5"/><path stroke="#8B572A" d="M126.686 148.686l.858-.515 1.545 2.573-.858.515zM125.34 146.756l.828.56-1.678 2.487-.83-.56zM131.34 146.756l.828.56-1.678 2.487-.83-.56z"/><circle fill="#E5C898" cx="64.5" cy="49.5" r="15.5"/><path fill="#EDDCDC" d="M48 49h34l-6.172 20H53.485"/><circle fill="#E5C898" cx="125.5" cy="49.5" r="15.5"/><path fill="#DCEDDD" d="M109 49h34l-6.172 20h-22.343"/></g></svg>