<svg width="357" height="641" xmlns="http://www.w3.org/2000/svg" xmlns:xlink="http://www.w3.org/1999/xlink"><defs><path d="M44.574 22.732c0-12.365-9.658-22.35-21.85-22.35C10.535.383.427 10.368.427 22.733c0 12.366 44.148 12.366 44.148 0z" id="a"/></defs><g transform="translate(0 -1)" fill="none" fill-rule="evenodd"><path d="M263.34 268.668l37.909-65.658c2.728-4.34 8.98-5.467 14.139-2.49 5.158 2.979 7.308 8.957 4.909 13.487l-46.226 80.077c-.508 1.325-1.302 2.673-2.346 3.979-.288.4-.608.77-.956 1.109-1.636 1.764-3.727 3.411-6.171 4.766-7.578 4.2-15.738 4.033-18.46-.315l-46.517-83.903c-2.701-4.873 1.495-12.079 9.224-16.363 7.728-4.284 16.063-4.024 18.615.58l35.88 64.731z" fill="#CC659A" fill-rule="nonzero"/><path d="M312.433 173.03l13.977-24.208.008.004a1.16 1.16 0 0 1 .064-.127c1.217-2.108 8.852.021 17.053 4.756s13.863 10.283 12.646 12.39a1.16 1.16 0 0 1-.079.12l.008.004-22.179 38.414-.007-.004c-1.233 1.634-6.925.293-13.595-3.053l-10.755 19.402-.002-.001c-1.308 2.185-4.225 2.899-6.593 1.586-2.368-1.313-3.308-4.165-2.149-6.432l-.002-.001 10.928-19.714c-5.112-3.668-8.23-7.243-7.516-8.926l-.008-.004 3.564-6.173-3.845-11.167h.002a1.68 1.68 0 0 1-.027-.073c-.433-1.255.699-2.783 2.526-3.412 1.828-.63 3.66-.122 4.092 1.133.009.024.017.049.024.074h.001l1.864 5.413z" fill="#F8B195" fill-rule="nonzero"/><path d="M312.27 220.67c-1.743 3.144-5.701 4.282-8.834 2.545l-1.763-.977c-3.136-1.738-4.267-5.694-2.523-8.84l3.325-6c1.743-3.143 3.936-2.893 4.193-1.975 0 0 2.181 2.483 2.75 2.798.568.315 4.088 1.804 4.088 1.804l1.317.273c2.169-.728 2.515 1.227.772 4.373l-3.326 6z" fill="#CC659A" fill-rule="nonzero"/><g fill-rule="nonzero"><g fill="#4A4A4A"><path d="M84 356.962h130v51.49H84z"/><path d="M214 411.152c0-28.18-27.707-51.154-62.4-52.252a82.196 82.196 0 0 0-2.6-.041c-35.899 0-65 23.412-65 52.293 0 28.88 130 28.88 130 0z"/></g><path fill="#4A4A4A" d="M165 381.445h25v245h-25z"/><path d="M206.13 632.01c0-11.357-9.207-20.565-20.565-20.565S165 620.653 165 632.01c0 11.358 41.13 11.358 41.13 0z" stroke="#000" fill="#000"/><g><path fill="#4A4A4A" d="M105 381.445h25v245h-25z"/><path d="M131.13 631.01c0-11.357-9.207-20.565-20.565-20.565S90 619.653 90 631.01c0 11.358 41.13 11.358 41.13 0z" stroke="#000" fill="#000"/></g></g><path d="M84.382 372.077a7.959 7.959 0 0 1-.382-2.442V241.256c0-.363.024-.72.07-1.07a26.102 26.102 0 0 1-.07-1.923c0-22.543 29.101-40.818 65-40.818s65 18.275 65 40.818c0 .645-.024 1.287-.071 1.925.047.35.071.706.071 1.068v128.379c0 .855-.134 1.68-.384 2.453-3.537 20.444-31.117 36.357-64.616 36.357-33.505 0-61.088-15.918-64.618-36.368z" fill="#CC659A" fill-rule="nonzero"/><g transform="translate(132 238.445)"><ellipse fill="#000" fill-rule="nonzero" cx="4" cy="24" rx="4" ry="4"/><ellipse fill="#000" fill-rule="nonzero" cx="4" cy="50.667" rx="4" ry="4"/><ellipse fill="#000" fill-rule="nonzero" cx="4" cy="77.333" rx="4" ry="4"/><ellipse fill="#000" fill-rule="nonzero" cx="4" cy="104" rx="4" ry="4"/><ellipse fill="#000" fill-rule="nonzero" cx="4" cy="130.667" rx="4" ry="4"/><path d="M20.076.857V151.34" stroke="#08282A"/></g><path d="M159.862 212.22a13.243 13.243 0 0 0 3.138-8.59c0-.294-.01-.586-.028-.874.019-.223.028-.448.028-.675v-30.629c0-.269-.013-.534-.039-.796.026-.338.039-.68.039-1.026 0-7.282-5.82-13.185-13-13.185s-13 5.903-13 13.185c0 .345.013.687.039 1.026a8.09 8.09 0 0 0-.039.792v30.626c0 .228.01.455.028.678-.018.29-.028.583-.028.878 0 2.31.586 4.482 1.615 6.37h-.015l.055.071a13.214 13.214 0 0 0 2.362 3.089l9.805 12.82 9.04-13.76z" fill="#DF9C82" fill-rule="nonzero"/><path d="M8.347 291.723a8.36 8.36 0 0 0 1.182 2.073l61.662 73.495c3.582 4.268 10.098 4.372 14.751.467 4.654-3.905 5.684-10.34 2.3-14.373l-55.096-65.66 65.79-51.402c3.863-3.374 2.752-11.46-2.582-18.287-5.334-6.827-12.91-9.861-17.114-6.922L3.636 270.17c-4.39 3.43-3.343 11.703 2.097 18.666a26.466 26.466 0 0 0 2.614 2.886z" fill="#CC659A" fill-rule="nonzero"/><path d="M107.288 365.647l.004.003-18.906 20.998-.004-.004c-1.148.996-5.536-1.328-9.93-5.286-4.396-3.957-7.167-8.078-6.295-9.323l-.005-.004 18.906-20.997.004.003a.74.74 0 0 1 .057-.07c1.037-1.153 5.512 1.185 9.995 5.221 4.483 4.037 7.276 8.243 6.238 9.395a.74.74 0 0 1-.064.064z" fill="#F8B195" fill-rule="nonzero"/><g transform="translate(70 91.445)" fill-rule="nonzero"><ellipse fill="#F8B195" cx="11" cy="11" rx="11" ry="11"/><ellipse fill="#DF9C82" cx="11" cy="11" rx="6" ry="6"/><circle fill="#F4F2F2" cx="9.5" cy="19.5" r="2.5"/></g><g transform="translate(205 91.445)" fill-rule="nonzero"><ellipse fill="#F8B195" cx="11" cy="11" rx="11" ry="11"/><ellipse fill="#DF9C82" cx="12" cy="12" rx="6" ry="6"/><circle fill="#F4F2F2" cx="13.5" cy="19.5" r="2.5"/></g><path d="M182.05 106.445s76.219 21.372 27.912 65.267c-48.306 43.896 5.774 76.026 5.774 76.026s-42.14-22.875-50.13-45.668c-7.991-22.794 16.443-95.625 16.443-95.625z" fill="#FDE968" fill-rule="nonzero"/><path d="M148.5 186.445c25.118 0 68.5-36.265 68.5-81s-30.668-81-68.5-81-68.5 36.265-68.5 81 43.382 81 68.5 81z" fill="#F8B195" fill-rule="nonzero"/><g fill-rule="nonzero" fill="#8B572A"><path d="M104 85.488s10.388-21.942 28.658-10.97c9.032 5.423-4.778.352-14.067 1.74-9.29 1.386-14.591 9.23-14.591 9.23zM193.7 86.488s-10.092-21.942-27.843-10.97c-8.776 5.423 4.642.352 13.667 1.74 9.025 1.386 14.176 9.23 14.176 9.23z"/></g><g transform="translate(96 116.445)" fill-rule="nonzero" fill="#F1A1A1"><ellipse cx="95" cy="6.5" rx="14" ry="6.5"/><ellipse cx="14" cy="6.5" rx="14" ry="6.5"/></g><g transform="translate(106 82)" fill-rule="nonzero"><path d="M15.992 8.883S9.187 7.506 5.071.983c0 0-.493 5.275 8.069 9.944 0 0-3.909.232-10.362-5.973 0 0 2.076 5.99 10.666 8.343 0 0-5.369.741-10.19-3.277 0 0 1.573 4.612 10.737 5.513l2.001-6.65z" fill="#000"/><ellipse fill="#000" cx="19.5" cy="13.945" rx="8.5" ry="8.5"/><circle fill="#FFF" cx="16.5" cy="11.945" r="3.5"/><ellipse fill="#FFF" cx="22.5" cy="15.945" rx="2.5" ry="2.5"/></g><g transform="translate(163 82)" fill-rule="nonzero"><ellipse fill="#000" cx="8.5" cy="13.945" rx="8.5" ry="8.5"/><path d="M13.202 8.141s6.805-1.377 10.921-7.9c0 0 .493 5.276-8.069 9.944 0 0 3.909.232 10.362-5.972 0 0-2.076 5.99-10.666 8.342 0 0 5.369.742 10.19-3.276 0 0-1.573 4.612-10.737 5.513l-2.001-6.65z" fill="#000"/><ellipse fill="#FFF" cx="5.5" cy="11.945" rx="3.5" ry="3.5"/><ellipse fill="#FFF" cx="11.5" cy="15.945" rx="2.5" ry="2.5"/></g><ellipse fill="#DF9C82" fill-rule="nonzero" cx="148" cy="114.945" rx="8" ry="5.5"/><path d="M223.822 88.087c6.917-16.72-6.84-66.982-29.661-79.116-23.125-12.296-48.389-10.127-56.86 4.755-8.22-.106-18.206 2.942-27.586 9.034-17.277 11.22-35.81 55.886-29.241 66.002.227.35.533.606.912.775.192 1.219.522 2.728 1.043 4.598 1.055 3.786-9.499 12.154-5.534 18.264 2.137 3.293 5.617 6.514 7.605 8.899 1.988 2.384 3.34 5.006 3.34 5.006s.672-3.713-1.197-8.708c-1.87-4.995-5.215-10.001 0-16.03 7.02-8.117 6.676-13.654 6.05-15.939 16.08-9.911 43.109-35.314 54.866-51.59 7.845 8.181 18.955 17.68 30.374 27.192 13.7 11.414 25.653 21.576 33.946 26.558.645.992 1.21 2.057 1.643 3.187 2.683 7.021 2.651 22.936 2.651 22.936s4.726-1.67 7.382-17.055c.59-3.413.603-6.317.267-8.768z" fill="#FDE968" fill-rule="nonzero"/><path d="M126.544 146.273C126.328 158.636 135.81 168.787 148 169c12.19.213 22.47-9.594 22.685-21.957.216-12.363-43.925-13.134-44.141-.77z" fill-rule="nonzero" fill="#000"/><g transform="translate(126 137)"><mask id="b" fill="#fff"><use xlink:href="#a"/></mask><path d="M9.068 27.646A13.26 13.26 0 0 1 9 26.3C9 18.955 15.044 13 22.5 13S36 18.955 36 26.3c0 .336-.013.67-.038 1-3.781 2.95-8.626 4.7-13.874 4.7-4.837 0-9.354-1.637-13.02-4.354z" fill="#D0021B" fill-rule="nonzero" mask="url(#b)"/></g></g></svg>