<?xml version="1.0" encoding="UTF-8"?>
<svg width="744px" height="561px" viewBox="0 0 744 561" version="1.1" xmlns="http://www.w3.org/2000/svg" xmlns:xlink="http://www.w3.org/1999/xlink">
    <!-- Generator: Sketch 43.1 (39012) - http://www.bohemiancoding.com/sketch -->
    <title>Group 4</title>
    <desc>Created with Sketch.</desc>
    <defs>
        <polygon id="path-1" points="4.51546392 10.5360825 42.1443299 10.5360825 34.6634266 73 11.168594 73"></polygon>
        <rect id="path-2" x="18.0618557" y="27.0927835" width="8.27835052" height="8.27835052"></rect>
        <rect id="path-3" x="373" y="164" width="116" height="6"></rect>
        <rect id="path-4" x="373" y="162" width="116" height="6"></rect>
        <rect id="path-5" x="373" y="157" width="116" height="6"></rect>
        <rect id="path-6" x="80.8323699" y="0" width="3.72254335" height="10"></rect>
        <rect id="path-7" x="150" y="103" width="6" height="21" rx="3"></rect>
    </defs>
    <g id="Page-1" stroke="none" stroke-width="1" fill="none" fill-rule="evenodd">
        <g id="setting-2" transform="translate(-378.000000, -463.000000)">
            <g id="Group-4" transform="translate(378.000000, 463.000000)">
                <path d="M49.0932669,239 L0,239 L0,169 L744,169 L744,239 L705.836232,239 L743.754442,547.819041 C743.754442,547.819041 740.607023,552.340418 735.736724,555.518726 C730.866425,558.697034 724.682883,560.30223 720.991854,560.755431 C718.067091,561.114547 711.195452,560.227999 707.44826,558.812493 C703.701069,557.396987 699.115738,553.299984 699.115738,553.299984 L661.176784,239 L93.7637671,239 L55.1725815,553.299984 C55.1725815,553.299984 51.0248337,556.925627 45.5303013,558.831294 C40.0357689,560.736961 33.6475724,560.798542 29.956543,560.34534 C27.0317803,559.986224 20.5787333,557.463611 17.2852916,555.183624 C13.9918499,552.903636 10.5338777,547.819041 10.5338777,547.819041 L49.0932669,239 Z" id="table" fill="#244359"></path>
                <g id="tea-cup" transform="translate(154.000000, 96.000000)">
                    <g id="Rectangle-20">
                        <use fill="#F1F1F1" fill-rule="evenodd" xlink:href="#path-1"></use>
                        <path stroke="#979797" stroke-width="1" d="M5.07154788,11.0360825 L41.580875,11.0360825 L34.2197354,72.5 L11.6181664,72.5 L5.07154788,11.0360825 Z"></path>
                    </g>
                    <rect id="Rectangle-21" fill="#553F3F" x="0" y="3.7628866" width="45.9072165" height="7.5257732"></rect>
                    <rect id="Rectangle-22" fill="#553F3F" x="6.02061856" y="0" width="34.6185567" height="4.51546392"></rect>
                    <path d="M30.7342508,11.2886598 C30.7342508,11.2886598 20.3493569,20.9143332 22.0032145,27.67184" id="Path-20" stroke="#979797"></path>
                    <g id="Rectangle-23">
                        <use fill="#FFFFFF" fill-rule="evenodd" xlink:href="#path-2"></use>
                        <rect stroke="#979797" stroke-width="1" x="18.5618557" y="27.5927835" width="7.27835052" height="7.27835052"></rect>
                    </g>
                </g>
                <rect id="Rectangle-69" fill="#212121" x="148" y="86" width="9" height="68" rx="4.5"></rect>
                <g id="Group" transform="translate(193.000000, 150.000000)">
                    <rect id="Rectangle-63" fill="#B1E7DB" x="0" y="0.173469388" width="123" height="18.8265306" rx="9.41326531"></rect>
                    <rect id="Rectangle-63" fill="#020202" x="7" y="5.87047125" width="108" height="9.12952875" rx="4.56476438"></rect>
                </g>
                <g id="Group-14" transform="translate(629.000000, 21.000000)">
                    <g id="lamp">
                        <rect id="Rectangle-18" fill="#30A7B7" transform="translate(72.381019, 110.906325) scale(1, -1) rotate(58.000000) translate(-72.381019, -110.906325) " x="36.8343313" y="107.906325" width="71.093375" height="6"></rect>
                        <rect id="Rectangle-18" fill="#30A7B7" transform="translate(71.256624, 55.256624) scale(1, -1) rotate(-45.000000) translate(-71.256624, -55.256624) " x="35.7099366" y="52.2566241" width="71.093375" height="6"></rect>
                        <path d="M34,143 C35.8677191,133.315122 44.3893437,126 54.6195067,126 C64.8496697,126 73.3712943,133.315122 75.2390133,143 L34,143 Z" id="Combined-Shape" fill="#30A7B7"></path>
                        <ellipse id="Oval-23" fill="#30A7B7" cx="93.5" cy="78.5" rx="5.5" ry="5.5"></ellipse>
                        <path d="M6.49039079,37.1565816 C6.43816568,36.4967929 6.41155592,35.8297948 6.41155592,35.1565816 C6.41155592,21.3494628 17.6044372,10.1565816 31.4115559,10.1565816 C45.2186747,10.1565816 56.4115559,21.3494628 56.4115559,35.1565816 C56.4115559,35.8297948 56.3849462,36.4967929 56.332721,37.1565816 L6.49039079,37.1565816 Z" id="Combined-Shape" fill="#30A7B7" transform="translate(31.411556, 23.656582) rotate(28.000000) translate(-31.411556, -23.656582) "></path>
                        <rect id="Rectangle-24" fill="#4C9BA1" transform="translate(24.500000, 37.000000) rotate(28.000000) translate(-24.500000, -37.000000) " x="-2" y="35" width="53" height="4"></rect>
                    </g>
                    <rect id="Rectangle-26" fill="#4C9BA1" x="22" y="142" width="66" height="7" rx="3.5"></rect>
                </g>
                <g id="Rectangle-19">
                    <use fill="#FFFFFF" fill-rule="evenodd" xlink:href="#path-3"></use>
                    <rect stroke="#979797" stroke-width="1" x="373.5" y="164.5" width="115" height="5"></rect>
                </g>
                <g id="Rectangle-19">
                    <use fill="#FFFFFF" fill-rule="evenodd" xlink:href="#path-4"></use>
                    <rect stroke="#979797" stroke-width="1" x="373.5" y="162.5" width="115" height="5"></rect>
                </g>
                <g id="Rectangle-19">
                    <use fill="#FFFFFF" fill-rule="evenodd" xlink:href="#path-5"></use>
                    <rect stroke="#979797" stroke-width="1" x="373.5" y="157.5" width="115" height="5"></rect>
                </g>
                <g id="Group-12" transform="translate(494.000000, 160.000000)">
                    <rect id="Rectangle-58" fill="#F8E81C" x="7.97687861" y="0.526315789" width="78.1734104" height="8.94736842"></rect>
                    <rect id="Rectangle-59" fill="#FFC4C4" x="80.8323699" y="0" width="11.1676301" height="9.47368421" rx="4.73684211"></rect>
                    <g id="Rectangle-60">
                        <use fill="#979797" fill-rule="evenodd" xlink:href="#path-6"></use>
                        <rect stroke="#979797" stroke-width="1" x="81.3323699" y="0.5" width="2.72254335" height="9"></rect>
                    </g>
                    <polygon id="Triangle-4" stroke="#979797" fill="#D8D8D8" points="0 5 7.44600497 1.69067383 7.44600497 8.54899089"></polygon>
                    <polygon id="Triangle-5" stroke="#979797" fill="#979797" points="0.531791908 5 2.12716763 4.21052632 2.12716763 5.78947368"></polygon>
                </g>
                <g id="Cat" transform="translate(18.000000, 0.000000)" fill="#818181">
                    <path d="M12.9077551,76.9523893 C15.2517223,63.9052782 27.8963814,53.3285049 41.1468511,53.3285049 L44.4108215,53.3285049 C57.6628763,53.3285049 70.0140942,63.9437422 72.0010313,77.0580519 L82.53711,146.598958 C84.5227073,159.704425 75.3879469,170.328505 62.1322304,170.328505 L20.1324733,170.328505 C6.87757227,170.328505 -1.96755835,159.752127 0.376479887,146.704621 L12.9077551,76.9523893 Z" id="cat_body"></path>
                    <path d="M40.1781517,22.3365894 C40.4512647,22.3312105 40.7252279,22.3285049 41,22.3285049 C43.9008948,22.3285049 46.711634,22.6300691 49.3836567,23.1952595 L80.626268,9 L72.7978205,44.5025509 C72.9313939,45.4301218 73,46.3730541 73,47.3285049 C73,61.1356237 58.673112,72.3285049 41,72.3285049 C23.326888,72.3285049 9,61.1356237 9,47.3285049 C9,44.2618375 9.70677164,41.3241352 11,38.609394 L11,-3.55271368e-15 L40.1781431,22.3365896 Z" id="cat_head"></path>
                </g>
                <path d="M53.7158203,156.871388 C53.7158203,156.871388 73.9711914,160.747643 90.8134766,154.284138 C107.655762,147.820632 103.472656,127.347989 103.472656,127.347989 C103.472656,127.347989 103.686133,122.47505 105.011719,121.097521 C106.337304,119.719991 110.540039,119 110.540039,119 C110.540039,119 112.312571,119.261685 113.900517,119.917063 C114.63768,120.221304 115.335064,120.610388 115.796875,121.097521 C117.25349,122.634001 118.454102,127.347989 118.454102,127.347989 C118.454102,127.347989 118.935253,138.68837 114.112305,148.54759 C112.832841,151.163109 110.805581,155.176733 108.953125,157.500233 C103.82273,163.935189 97.5833282,167.347736 93.4951172,168.435985 C82.4120772,171.386201 53.7158203,168.435985 53.7158203,168.435985 C53.7158203,168.435985 52.2972791,168.078038 51.2905273,166.715772 C50.2837756,165.353506 50,163.516806 50,162.639313 C50,161.745472 50.437511,159.875044 51.2905273,158.736364 C52.1435437,157.597683 53.7158203,156.871388 53.7158203,156.871388 Z" id="Rectangle-64" fill="#6C6969"></path>
                <polygon id="Rectangle-68" fill="#212121" points="140.328125 149 162.714844 149 170 169 135 169"></polygon>
                <g id="Rectangle-70">
                    <use fill="#D8D8D8" fill-rule="evenodd" xlink:href="#path-7"></use>
                    <rect stroke="#979797" stroke-width="1" x="150.5" y="103.5" width="5" height="20" rx="2.5"></rect>
                </g>
            </g>
        </g>
    </g>
</svg>